General
Complete name                    : Easy Rider.mkv
Format                           : Matroska
File size                        : 1.76 GiB
Duration                         : 1h 31mn
Overall bit rate                 : 2 744 Kbps
Writing application              : HandBrake 0.9.4

Video
ID                               : 1
Format                           : AVC
Duration                         : 1h 31mn
Bit rate                         : 2 241 Kbps
Width                            : 720 pixels
Height                           : 560 pixels
Display aspect ratio             : 16:9
Original display aspect ratio    : 16:9
Frame rate                       : 25.000 fps
Resolution                       : 8 bits
Colorimetry                      : 4:2:0
Scan type                        : Progressive
Bits/(Pixel*Frame)               : 0.222
Stream size                      : 1.44 GiB (82%)
Writing library                  : x264 core 79


Audio
ID                               : 2
Format                           : AC-3
Format/Info                      : Audio Coding 3
Codec ID                         : A_AC3
Duration                         : 1h 31mn
Bit rate mode                    : Constant
Bit rate                         : 448 Kbps
Channel(s)                       : 6 channels
Channel positions                : Front: L C R, Side: L R, LFE
Sampling rate                    : 48.0 KHz
Stream size                      : 294 MiB (16%)
Language                         : English

Text #1
Language                         : English

Text #2
Language                         : French

Text #3
Language                         : German

Text #4
Language                         : Italian

Text #5
Language                         : Spanish

Text #6
Language                         : Dutch

Text #7
Language                         : Czech

Text #8
Language                         : Danish

Text #9
Language                         : Finnish

Text #10
Language                         : Greek

Text #11
Language                         : Hebrew

Text #12
Language                         : Hindi

Text #13
Language                         : Hungarian

Text #14
Language                         : Icelandic

Text #15
Language                         : Norwegian

Text #16
Language                         : Polish

Text #17
Language                         : Portuguese

Text #18
Language                         : Swedish

Text #19
Language                         : Turkish

Text #20
Language                         : French

Menu
00:00:00.000                     : Chapter 1


